<svg xmlns="http://www.w3.org/2000/svg" width="900" height="520" viewBox="0 0 900 520">
  <rect x="0" y="0" width="100%" height="100%" fill="#fafafa" />
  <text x="40" y="50" font-size="18" font-weight="bold" fill="#222">Benchmark Snapshot</text>
  <text x="40" y="75" font-size="14" fill="#444">Dataset: spambase | Samples: 4601 | Features: 57 | Classes: 2</text>
  <g id="bars"><rect x="160" y="-3.308400000000006" width="40" height="183.3084" fill="#4C78A8" rx="4" /><text x="180.0" y="-9.308400000000006" text-anchor="middle" font-size="12" fill="#333">0.917</text><text x="180.0" y="198" text-anchor="middle" font-size="12" fill="#555">CART Accuracy</text><rect x="230" y="-6.264199999999988" width="40" height="186.2642" fill="#E45756" rx="4" /><text x="250.0" y="-12.264199999999988" text-anchor="middle" font-size="12" fill="#333">0.931</text><text x="250.0" y="198" text-anchor="middle" font-size="12" fill="#555">Oblique Accuracy</text><rect x="300" y="-2.4298" width="40" height="182.4298" fill="#72B7B2" rx="4" /><text x="320.0" y="-8.4298" text-anchor="middle" font-size="12" fill="#333">0.912</text><text x="320.0" y="198" text-anchor="middle" font-size="12" fill="#555">F1 CART</text><rect x="370" y="-5.61760000000001" width="40" height="185.6176" fill="#E1A692" rx="4" /><text x="390.0" y="-11.61760000000001" text-anchor="middle" font-size="12" fill="#333">0.928</text><text x="390.0" y="198" text-anchor="middle" font-size="12" fill="#555">F1 Obl</text><text x="120" y="240" font-size="14" fill="#444">Delta Accuracy</text><line x1="120" y1="260" x2="320" y2="260" stroke="#ccc" stroke-width="8" stroke-linecap="round" /><circle cx="234.779" cy="260" r="10" fill="#F1C40F" stroke="#555" stroke-width="1.5" /><text x="234.779" y="290" text-anchor="middle" font-size="12" fill="#333">+0.015</text></g>
  <g id="legend"><rect x="40" y="400" width="14" height="14" fill="#4C78A8" rx="3" /><text x="62" y="412" font-size="12" fill="#444">CART Accuracy</text><rect x="40" y="424" width="14" height="14" fill="#E45756" rx="3" /><text x="62" y="436" font-size="12" fill="#444">Oblique Accuracy</text><rect x="40" y="448" width="14" height="14" fill="#72B7B2" rx="3" /><text x="62" y="460" font-size="12" fill="#444">F1 CART</text><rect x="40" y="472" width="14" height="14" fill="#E1A692" rx="3" /><text x="62" y="484" font-size="12" fill="#444">F1 Obl</text></g>
</svg>
